<svg xmlns="http://www.w3.org/2000/svg" xmlns:xlink="http://www.w3.org/1999/xlink" width="28" height="14"><defs><linearGradient id="a"><stop offset="0" stop-color="#3fa6da"/><stop offset="1" stop-color="#72d1d7"/></linearGradient><linearGradient id="b" x2="32" y1="16" y2="16" gradientTransform="scale(.875 .4375)" gradientUnits="userSpaceOnUse" xlink:href="#a"/></defs><path fill="url(#b)" d="M0 0h28v14H0z"/><path fill="#fff" d="M0 11h28v1H0zM0 2v1h3v4H0v1h3l3 2h6s2 0 3-2l-1-1H6V3h4C9 2 8 2 8 2z"/><path fill="#fff" fill-opacity=".502" d="M0 8h3l3 2H0zM14 7H6V3h4zM0 3h3v4H0z"/><g fill="#fff"><path d="M18.753 2.57H18v2.476q0 .214-.095.319-.096.102-.247.102-.153 0-.251-.104-.095-.105-.095-.317V2.57h-.754q-.176 0-.263-.077-.086-.08-.086-.207 0-.133.089-.21.09-.076.26-.076h2.195q.18 0 .266.08.088.078.088.206t-.088.207q-.089.077-.266.077zM18.753 7.103H18v2.476q0 .214-.095.319-.096.102-.247.102-.153 0-.251-.105-.095-.104-.095-.316V7.103h-.754q-.176 0-.263-.077-.086-.08-.086-.207 0-.133.089-.21.09-.076.26-.076h2.195q.18 0 .266.079.088.079.088.207t-.088.207q-.089.077-.266.077zM25.55 7.103h-.753v2.476q0 .214-.095.319-.095.102-.246.102-.154 0-.252-.105-.095-.104-.095-.316V7.103h-.753q-.177 0-.263-.077-.086-.08-.086-.207 0-.133.088-.21.09-.076.26-.076h2.196q.179 0 .265.079.088.079.088.207t-.088.207q-.088.077-.265.077zM19.896 9.291l.75-1.095-.63-.975q-.09-.142-.136-.242-.043-.103-.043-.197 0-.096.084-.171.087-.078.21-.078.143 0 .22.084.08.083.22.31l.503.813.537-.814.113-.176q.048-.073.091-.121t.096-.071q.055-.025.126-.025.128 0 .208.078.082.075.082.18 0 .154-.176.417l-.66.988.71 1.095q.097.144.14.24.044.094.044.179 0 .08-.04.146-.038.066-.11.105-.07.039-.16.039-.095 0-.162-.041-.066-.039-.107-.099-.041-.059-.153-.23l-.59-.929-.627.956q-.073.114-.105.16-.03.046-.073.09-.044.043-.103.068-.06.025-.14.025-.123 0-.206-.075-.08-.076-.08-.22 0-.17.167-.414zM20.503 3.951h-.242v1.095q0 .217-.095.319-.096.102-.25.102-.164 0-.255-.107-.09-.107-.09-.314V2.423q0-.223.1-.323t.323-.1h1.123q.232 0 .397.02t.298.08q.16.067.284.193.123.126.186.293.065.165.065.351 0 .382-.216.61-.214.227-.652.323.184.097.352.288.167.19.297.407.133.214.205.388.074.172.074.237 0 .068-.044.135-.042.065-.116.103-.075.04-.172.04-.117 0-.196-.057-.079-.053-.137-.137-.056-.084-.153-.246l-.277-.46q-.149-.254-.267-.387-.117-.132-.238-.181-.12-.049-.304-.049zm.395-1.432h-.637v.937h.618q.25 0 .42-.042.169-.044.257-.147.09-.104.09-.286 0-.142-.071-.249-.072-.109-.2-.162-.121-.051-.477-.051zM23.92 2.414l1.328 2.01V2.394q0-.197.084-.295.086-.1.23-.1.149 0 .235.1.086.098.086.295v2.681q0 .45-.372.45-.093 0-.167-.029-.075-.025-.14-.083-.065-.058-.12-.135l-.112-.16-1.296-1.987V5.13q0 .195-.09.295-.091.1-.233.1-.146 0-.235-.1-.088-.102-.088-.295V2.5q0-.167.037-.263.044-.104.147-.17.102-.067.22-.067.093 0 .159.03.067.03.116.082.051.05.102.132l.11.17z"/></g></svg>