<svg xmlns="http://www.w3.org/2000/svg" xmlns:xlink="http://www.w3.org/1999/xlink" width="32" height="32"><defs><linearGradient id="a"><stop offset="0" stop-color="#3fa6da"/><stop offset="1" stop-color="#72d1d7"/></linearGradient><linearGradient id="b" x2="32" y1="16" y2="16" gradientTransform="translate(35)" gradientUnits="userSpaceOnUse" xlink:href="#a"/></defs><path fill="url(#b)" d="M35 0h32v32H35z"/><path fill="#fff" d="M0 20h32v1H0zM0 11v1h6v4H0v1h17l3 2h6s2 0 3-2l-1-1h-8v-4h4c-1-1-2-1-2-1zm9 1h8v4H9z"/><path fill="#fff" fill-opacity=".5" d="M0 17h17l3 2H0zM28 16h-8v-4h4zM0 12h6v4H0zM9 12h8v4H9z"/><path fill="#fff" d="M-19.8-11.8l-.3-.9h-2.7l-.3.9-.4.7q0 .2-.4.2l-.4-.2q-.2-.2-.2-.5v-.2l.2-.4 1.7-4.4.1-.4.3-.5.3-.2.4-.2q.3 0 .5.2.2 0 .3.2l.2.4.2.5 1.8 4.3.2.7q0 .3-.2.5t-.5.2l-.3-.1-.2-.2-.1-.3-.2-.3zm-2.7-1.9h2l-1-2.7zM-14.5-11h-2q-.5 0-.7-.3-.2-.2-.2-.6v-5q0-.5.2-.6.2-.2.7-.2h3l.6.2.4.4.3.5v.5q0 1-1 1.5 1.4.4 1.4 1.6 0 .6-.3 1-.3.5-.8.7l-.7.2h-.9zm0-3H-16v2h1.5q1.3 0 1.3-1 0-.6-.3-.8-.4-.2-1-.2zm-1.5-2.7v1.7h1.2l.8-.1q.3 0 .4-.4l.2-.4q0-.5-.4-.7l-1.1-.1zM-5-13.2l-.1.7-.5.7q-.3.4-.9.6-.5.3-1.2.3l-1-.1q-.4-.1-.7-.4l-.7-.5-.4-.7-.3-.9-.1-.9q0-.8.2-1.4.3-.7.7-1.1.4-.5 1-.7.6-.3 1.3-.3.8 0 1.4.4.7.3 1 .8.3.4.3.9l-.1.4-.4.2q-.3 0-.4-.2l-.3-.4-.6-.7q-.4-.3-1-.3-.7 0-1.2.7-.5.6-.5 1.8 0 .7.2 1.3.2.5.6.7.4.3 1 .3.5 0 1-.3.3-.3.5-.9l.3-.4q0-.2.4-.2l.4.2.2.4zM-2.9-17.7h3l.8.6q1 .9 1 2.7v1l-.3 1-.6.7-.6.4-.7.2h-3.1l-.3-.4V-17q0-.4.2-.5.2-.2.6-.2zm.5 1v4.6h1.6l.4-.1.3-.3q.7-.5.7-2 0-1-.3-1.4-.3-.5-.7-.6l-1-.2zM7.6-16.7h-3v1.6h2.7q.4 0 .5.2.2.1.2.3 0 .3-.2.4-.1.2-.5.2H4.5v1.9h3.2l.5.1.1.4-.1.4-.5.1H4q-.4 0-.6-.2-.2-.2-.2-.6v-5-.5l.3-.3h4.1l.5.1.1.4-.1.4-.5.1zM13.4-16.7h-2.7v1.7H13q.3 0 .4.2.2 0 .2.3t-.2.4l-.4.1h-2.3v2.2l-.1.7q-.2.2-.5.2t-.5-.3q-.2-.2-.2-.6v-5.1-.5l.3-.3h3.7l.5.1.1.4-.1.4-.5.1zM21.2-13.8v1.3l-.1.4q0 .2-.2.3l-.3.2q-.6.4-1.2.5l-1.2.2q-.8 0-1.4-.3-.7-.2-1.1-.7l-.7-1q-.2-.7-.2-1.5t.2-1.4q.2-.7.7-1.1.4-.5 1-.7.7-.3 1.6-.3l1.2.2.8.5q.3.2.5.6l.1.5-.1.4q-.2.2-.5.2H20l-.2-.2-.4-.6-.5-.4-.7-.1q-.5 0-.9.2-.4.1-.6.4-.3.3-.4.8-.2.4-.2 1 0 1.1.6 1.8.5.6 1.5.6l.9-.1.8-.4v-1h-1q-.4 0-.6-.2-.2 0-.2-.4 0-.2.2-.3.1-.2.4-.2h2l.3.3q.2.2.2.5zM23.8-17v1.9h3v-2l.1-.6q.2-.2.5-.2t.5.2q.2.2.2.7v5.2q0 .4-.2.6-.2.3-.5.3t-.5-.3q-.2-.2-.2-.6V-14h-2.9v2.2q0 .4-.2.6-.2.3-.5.3t-.5-.3l-.1-.6V-17l.1-.7q.2-.2.5-.2t.5.2q.2.2.2.7zM29.6-11.8V-17q0-.4.2-.7.2-.2.5-.2t.5.2l.1.7v5.2l-.1.6q-.2.3-.5.3t-.5-.3q-.2-.2-.2-.6zM36.3-17v4.2q0 .4-.2.7-.2.5-.7.8-.5.4-1.3.4-.7 0-1.1-.3-.5-.2-.8-.7l-.2-.5v-.7-.5l.5-.1.4.1.3.5.1.6q0 .2.3.3.2.2.5.2.9 0 .9-1.3V-17q0-.4.2-.7.1-.2.5-.2.3 0 .5.2l.1.7zM39.2-17v2.3l2.6-2.8.4-.3h.3l.5.1.2.4q0 .3-.3.6L41.2-15l2 2.7.2.5.1.4-.2.4q-.1.2-.4.2-.3 0-.5-.2-.2 0-.3-.3l-.2-.4-1.6-2.4-1.1 1v1.4q0 .4-.2.7-.2.2-.5.2l-.3-.1-.3-.3v-.3-5.5l.1-.6q.2-.2.5-.2t.5.2q.2.2.2.7zM46-17v4.8h2.8q.3 0 .5.2.2.1.2.4l-.2.4-.5.1h-3.3q-.4 0-.6-.2-.2-.2-.2-.6V-17q0-.4.2-.7.2-.2.5-.2t.5.2q.2.2.2.7zM52.6-12l-1-4.3v4.6q0 .4-.2.6-.2.2-.5.2t-.4-.2q-.2-.2-.2-.6V-17q0-.4.2-.6l.6-.1h1q.2 0 .3.3l.2.5 1 3.7.9-3.7.2-.5q0-.2.2-.3h1l.6.1q.2.2.2.6v5.3l-.1.6q-.2.2-.5.2t-.4-.2q-.2-.2-.2-.6v-4.6l-1 4.2-.2.6-.3.4q-.2.2-.5.2l-.4-.2-.2-.2-.2-.4v-.4zM-24.5-8.6l2.6 4v-4q0-.4.2-.6.1-.2.4-.2.3 0 .5.2l.1.6v5.2q0 1-.7 1l-.3-.1q-.2 0-.3-.2l-.2-.3-.2-.3-2.6-3.9v4q0 .3-.2.5-.1.2-.4.2-.3 0-.5-.2t-.2-.6v-5.1l.1-.5.3-.4h.7l.3.1.2.3q0 .2.2.3zM-16.2-9.4q1 0 1.7.4.8.5 1.2 1.2.4.8.4 1.9 0 .7-.3 1.4-.2.6-.6 1-.4.5-1 .8-.6.2-1.4.2-.8 0-1.4-.2l-1-.7q-.5-.5-.7-1.2-.2-.6-.2-1.3 0-.8.2-1.5l.7-1q.4-.5 1-.7.6-.3 1.4-.3zm1.9 3.5q0-.8-.3-1.3-.2-.6-.6-.8-.5-.3-1-.3l-.8.1-.6.5-.4.7-.1 1 .1 1 .4.8.6.5.8.1 1-.2q.4-.3.6-.8.3-.6.3-1.3zM-9.2-5.2h-1.2v1.9q0 .4-.2.6-.2.2-.5.2t-.5-.2q-.2-.2-.2-.6v-5.1q0-.5.2-.7.2-.2.7-.2h1.7l1.2.1.7.4.5.7.1.8q0 1-.6 1.6-.6.5-1.9.5zm-.3-3h-1v2h1l.8-.1.5-.3.1-.6q0-.5-.2-.8-.3-.3-1.2-.3zM-.2-3.4l.7.4.4.3q.2 0 .2.3l-.2.3-.3.1H.2l-.5-.4-.7-.4q-.6.3-1.6.3-.8 0-1.4-.2l-1-.7q-.4-.5-.6-1.2-.3-.6-.3-1.3 0-.8.3-1.5.2-.6.6-1 .4-.5 1-.7.6-.3 1.4-.3 1 0 1.8.4.7.5 1.1 1.2.4.8.4 1.9 0 1.5-.9 2.5zm-1-.8l.4-.7.1-1q0-.8-.2-1.3-.3-.6-.7-.8-.4-.3-1-.3l-.8.1-.5.5q-.3.3-.4.7l-.2 1q0 1.2.6 1.8.5.6 1.3.6h.7Q-2-4-2.4-4l-.5-.3v-.2-.2q.1-.2.3-.2.4 0 1.4.7zM3.7-5.4h-.5v2.1q0 .4-.2.6-.2.2-.5.2T2-2.7q-.2-.2-.2-.6v-5.1q0-.5.2-.7.2-.2.7-.2h3l.5.2.6.4.4.6v.7q0 .7-.3 1.2-.5.4-1.3.6l.7.6.6.8.4.7.1.5v.2l-.3.2-.3.1h-.4L6-3l-.3-.4-.5-1-.6-.7-.4-.4h-.6zm.7-2.9H3.2v1.9h1.2l.8-.1q.4 0 .5-.3.2-.2.2-.5l-.1-.5-.4-.4h-1zM13.6-4.6q0 .6-.3 1-.3.6-.9.8-.6.3-1.4.3-1 0-1.6-.4-.5-.2-.8-.7-.3-.4-.3-.8 0-.3.2-.5l.4-.1.4.1.3.4q0 .3.2.5l.4.4.8.1q.6 0 1-.2.3-.3.3-.8 0-.3-.2-.5l-.5-.3-.9-.2L9.5-6l-.8-.6q-.2-.4-.2-1t.3-1q.3-.4.8-.7.6-.2 1.4-.2.6 0 1 .2.5.1.8.4.3.2.4.5l.1.5-.1.5-.4.2-.4-.1-.3-.4q-.1-.4-.4-.6-.3-.2-.8-.2t-.9.2q-.3.2-.3.6l.1.3.3.3.4.1.7.2 1 .3.8.4q.3.2.5.6l.1.8zM19.1-8.2h-1.4v4.9q0 .4-.2.6-.2.2-.5.2t-.5-.2q-.2-.2-.2-.6v-4.9h-1.5l-.5-.1-.1-.4.1-.4q.2-.2.5-.2h4.3q.4 0 .6.2l.1.4-.1.4-.6.1zM20.6-5.4v-3.2q0-.4.2-.6.2-.2.5-.2t.5.2q.2.2.2.6v3.3l.1 1q.1.3.5.5.3.2.9.2.8 0 1-.4.4-.4.4-1.3v-3.3q0-.4.2-.6.2-.2.5-.2t.5.2q.2.2.2.6v3.2q0 .8-.2 1.4-.1.5-.6.9l-.8.5-1.1.1-1.4-.1q-.5-.2-.9-.6l-.5-.8q-.2-.6-.2-1.4zM28.7-8.5L30.2-4l1.5-4.5.2-.5q0-.2.2-.3h.7q.2 0 .2.2l.1.3v.5l-.1.2-1.7 4.4-.1.4-.2.4-.3.3-.5.1h-.5l-.3-.4-.2-.4-.2-.4-1.5-4.4-.1-.2-.1-.2v-.3l.2-.4q.1-.2.4-.2.4 0 .5.2.2.2.3.7zM38.9-3.6l-1.1-4-1.1 4-.2.6q0 .2-.3.4l-.5.1h-.4l-.2-.3-.2-.4-.1-.5-1.1-4.5-.1-.6.2-.4q.1-.2.4-.2.4 0 .5.3l.2.6.9 4 1-3.7q0-.4.2-.6 0-.3.3-.4.2-.2.5-.2t.5.2l.3.3.2.7 1 3.6.8-3.9.2-.4q0-.2.2-.3.1-.2.4-.2l.4.2.2.4-.1.6-1.1 4.5-.2.7q0 .2-.3.4l-.5.1-.5-.1-.2-.4-.2-.6zM42.6-3.9L44.1-6 43-8l-.3-.4v-.4-.3l.5-.2q.3 0 .5.2l.4.6L45-7l1-1.6.3-.4.2-.2.2-.1H47.3l.2.4q0 .3-.4.9l-1.3 2L47.2-4l.3.5.1.3v.3l-.3.2-.3.1h-.3l-.3-.3-.3-.4L45-5.1l-1.3 2-.2.3-.1.1-.2.2h-.3l-.4-.1q-.2-.2-.2-.5t.3-.8zM50-3.3v-2.1L48.4-8l-.3-.5-.1-.3.2-.4q.1-.2.4-.2.3 0 .4.2l.5.6 1.2 2 1.3-2q0-.2.2-.3l.1-.3.2-.1h.7q.2.2.2.5v.3L53-8l-1.6 2.6v2.1q0 .4-.2.6-.2.2-.5.2t-.5-.2q-.2-.2-.2-.6zM54.2-4.1l3.4-4.2h-3.4q-.2-.2-.2-.5 0-.2.2-.3.2-.2.5-.2h3.8q.7 0 .7.7l-.1.5-.5.7-3.2 3.8h3.5l.5.1.1.4-.1.4-.5.1h-4.3q-.5 0-.7-.2-.2-.2-.2-.5v-.2l.1-.2.2-.2.2-.2z"/><path fill="#fff" fill-opacity=".5" d="M-2 2h1v7h-1zM33 23h1v7h-1z"/></svg>