<?xml version="1.0" encoding="UTF-8" standalone="no"?>
<svg
   xmlns:dc="http://purl.org/dc/elements/1.1/"
   xmlns:cc="http://creativecommons.org/ns#"
   xmlns:rdf="http://www.w3.org/1999/02/22-rdf-syntax-ns#"
   xmlns:svg="http://www.w3.org/2000/svg"
   xmlns="http://www.w3.org/2000/svg"
   xmlns:xlink="http://www.w3.org/1999/xlink"
   xmlns:sodipodi="http://sodipodi.sourceforge.net/DTD/sodipodi-0.dtd"
   xmlns:inkscape="http://www.inkscape.org/namespaces/inkscape"
   id="svg8"
   version="1.1"
   viewBox="0 0 32 32"
   height="32"
   width="32"
   sodipodi:docname="trntxt_icon.svg"
   inkscape:version="0.92.1 r15371">
  <metadata
     id="metadata7">
    <rdf:RDF>
      <cc:Work
         rdf:about="">
        <dc:format>image/svg+xml</dc:format>
        <dc:type
           rdf:resource="http://purl.org/dc/dcmitype/StillImage" />
        <dc:title />
      </cc:Work>
    </rdf:RDF>
  </metadata>
  <defs
     id="defs5">
    <linearGradient
       inkscape:collect="always"
       id="linearGradient4501">
      <stop
         style="stop-color:#3fa6da;stop-opacity:1;"
         offset="0"
         id="stop4497" />
      <stop
         style="stop-color:#72d1d7;stop-opacity:1"
         offset="1"
         id="stop4499" />
    </linearGradient>
    <linearGradient
       inkscape:collect="always"
       xlink:href="#linearGradient4501"
       id="linearGradient4503"
       x1="0"
       y1="16"
       x2="32"
       y2="16"
       gradientUnits="userSpaceOnUse" />
  </defs>
  <sodipodi:namedview
     pagecolor="#b1b1b1"
     bordercolor="#666666"
     borderopacity="1"
     objecttolerance="10"
     gridtolerance="10"
     guidetolerance="10"
     inkscape:pageopacity="0"
     inkscape:pageshadow="2"
     inkscape:window-width="3840"
     inkscape:window-height="2004"
     id="namedview3"
     showgrid="true"
     inkscape:zoom="50.5"
     inkscape:cx="12.661375"
     inkscape:cy="13.063413"
     inkscape:window-x="-16"
     inkscape:window-y="-16"
     inkscape:window-maximized="1"
     inkscape:current-layer="svg8"
     inkscape:object-paths="false"
     inkscape:snap-grids="true"
     inkscape:snap-to-guides="false">
    <inkscape:grid
       type="xygrid"
       id="grid3679" />
  </sodipodi:namedview>
  <rect
     id="background"
     width="32"
     height="32"
     x="0"
     y="0"
     style="stroke:none;fill:url(#linearGradient4503);fill-opacity:1"
     inkscape:export-filename="C:\Users\Daniel\git\trntxt\resources\iconGenerator\trntxt_logo.png"
     inkscape:export-xdpi="3072"
     inkscape:export-ydpi="3072" />
  <rect
     style="fill:#ffffff;fill-opacity:1;stroke:none"
     id="rail"
     width="32"
     height="1"
     x="0"
     y="28"
     inkscape:export-filename="C:\Users\Daniel\git\trntxt\resources\iconGenerator\trntxt_logo.png"
     inkscape:export-xdpi="3072"
     inkscape:export-ydpi="3072" />
  <rect
     style="fill:#ffffff;fill-opacity:1;stroke:none"
     id="sleeper1"
     width="4"
     height="1"
     x="2"
     y="30"
     inkscape:export-filename="C:\Users\Daniel\git\trntxt\resources\iconGenerator\trntxt_logo.png"
     inkscape:export-xdpi="3072"
     inkscape:export-ydpi="3072" />
  <rect
     style="fill:#ffffff;fill-opacity:1;stroke:none"
     id="sleeper2"
     width="4"
     height="1"
     x="10"
     y="30"
     inkscape:export-filename="C:\Users\Daniel\git\trntxt\resources\iconGenerator\trntxt_logo.png"
     inkscape:export-xdpi="3072"
     inkscape:export-ydpi="3072" />
  <rect
     style="fill:#ffffff;fill-opacity:1;stroke:none"
     id="sleeper3"
     width="4"
     height="1"
     x="18"
     y="30"
     inkscape:export-filename="C:\Users\Daniel\git\trntxt\resources\iconGenerator\trntxt_logo.png"
     inkscape:export-xdpi="3072"
     inkscape:export-ydpi="3072" />
  <rect
     style="fill:#ffffff;fill-opacity:1;stroke:none"
     id="sleeper4"
     width="4"
     height="1"
     x="26"
     y="30"
     inkscape:export-filename="C:\Users\Daniel\git\trntxt\resources\iconGenerator\trntxt_logo.png"
     inkscape:export-xdpi="3072"
     inkscape:export-ydpi="3072" />
  <path
     style="fill:#ffffff;fill-opacity:1;stroke:none"
     d="m 0,18 v 1 h 6 v 4 H 0 v 1 h 17 l 3,3 h 6 l 3,-3 -1,-1 h -8 v -4 h 4 c -1,-1 -2,-1 -2,-1 z m 9,1 h 8 v 4 H 9 Z"
     id="trainframe"
     inkscape:connector-curvature="0"
     sodipodi:nodetypes="ccccccccccccccccccccc" />
  <path
     style="fill:#ffffff;stroke:none;fill-opacity:0.50196081"
     d="m 0,24 h 17 l 3,3 H 0 Z"
     id="trainbase"
     inkscape:connector-curvature="0" />
  <path
     style="fill:#ffffff;stroke:none;fill-opacity:0.50196081"
     d="m 28,23 h -8 v -4 h 4 z"
     id="frontwindow"
     inkscape:connector-curvature="0" />
  <rect
     style="fill:#ffffff;fill-opacity:0.50196078;stroke:none"
     id="window2"
     width="6"
     height="4"
     x="0"
     y="19" />
  <rect
     style="fill:#ffffff;fill-opacity:0.50196078;stroke:none"
     id="window1"
     width="8"
     height="4"
     x="9"
     y="19" />
  <path
     inkscape:connector-curvature="0"
     id="A"
     style="font-style:normal;font-variant:normal;font-weight:normal;font-stretch:normal;font-size:9.33333302px;line-height:1.25;font-family:'Arial Rounded MT Bold';-inkscape-font-specification:'Arial Rounded MT Bold, ';letter-spacing:0px;word-spacing:0px;fill:#ffffff;fill-opacity:1;stroke:none"
     d="m -77.60006,-3.6475991 -0.31901,-0.8385417 h -2.716146 l -0.31901,0.8567709 q -0.186849,0.501302 -0.319011,0.6790364 -0.132161,0.1731771 -0.432942,0.1731771 -0.255209,0 -0.451172,-0.186849 -0.195964,-0.1868489 -0.195964,-0.4238281 0,-0.1367187 0.04557,-0.2825521 0.04557,-0.1458333 0.150391,-0.4055989 l 1.708984,-4.3385415 q 0.07292,-0.186849 0.173177,-0.4466146 0.104818,-0.2643229 0.21875,-0.4375 0.11849,-0.1731771 0.305339,-0.2779948 0.191406,-0.109375 0.469401,-0.109375 0.282552,0 0.469401,0.109375 0.191406,0.1048177 0.305338,0.2734375 0.11849,0.1686198 0.195964,0.3645833 0.08203,0.1914063 0.205078,0.514974 l 1.745443,4.3111978 q 0.205078,0.4921874 0.205078,0.7154947 0,0.2324219 -0.195964,0.4283854 -0.191406,0.1914063 -0.464844,0.1914063 -0.159505,0 -0.273437,-0.059245 -0.113932,-0.054687 -0.191406,-0.1503906 -0.07747,-0.1002605 -0.16862,-0.3007813 -0.08659,-0.2050781 -0.150391,-0.360026 z m -2.679687,-1.8548177 h 1.996094 l -1.007162,-2.7571613 z"
     inkscape:export-filename="C:\Users\Daniel\git\trntxt\resources\iconGenerator\A.png"
     inkscape:export-xdpi="3112.5271"
     inkscape:export-ydpi="3112.5271" />
  <path
     inkscape:connector-curvature="0"
     id="B"
     style="font-style:normal;font-variant:normal;font-weight:normal;font-stretch:normal;font-size:9.33333302px;line-height:1.25;font-family:'Arial Rounded MT Bold';-inkscape-font-specification:'Arial Rounded MT Bold, ';letter-spacing:0px;word-spacing:0px;fill:#ffffff;fill-opacity:1;stroke:none"
     d="m -72.313602,-2.8910887 h -2.041666 q -0.442057,0 -0.633464,-0.1959636 -0.186849,-0.2005208 -0.186849,-0.6334635 V -8.742651 q 0,-0.4420573 0.191407,-0.6334635 0.195963,-0.1959636 0.628906,-0.1959636 h 2.164713 q 0.478516,0 0.829427,0.059245 0.350912,0.059245 0.628907,0.2278646 0.236979,0.141276 0.41927,0.360026 0.182292,0.2141927 0.277995,0.4785156 0.0957,0.2597656 0.0957,0.5514323 0,1.0026041 -1.002604,1.4674479 1.317057,0.4192708 1.317057,1.6315103 0,0.5605469 -0.287109,1.0117187 -0.287109,0.4466146 -0.77474,0.6608073 -0.305338,0.1276042 -0.701822,0.1822917 -0.396485,0.05013 -0.925131,0.05013 z m -0.10026,-2.9667968 h -1.408203 v 1.9505208 h 1.453776 q 1.371745,0 1.371745,-0.9889323 0,-0.5058593 -0.355469,-0.7337239 -0.355469,-0.2278646 -1.061849,-0.2278646 z m -1.408203,-2.6979166 v 1.7272135 h 1.239583 q 0.50586,0 0.779297,-0.095703 0.277995,-0.095703 0.423828,-0.3645833 0.113932,-0.1914063 0.113932,-0.4283854 0,-0.5058594 -0.360026,-0.6699219 -0.360026,-0.1686198 -1.098307,-0.1686198 z"
     inkscape:export-filename="C:\Users\Daniel\git\trntxt\resources\iconGenerator\B.png"
     inkscape:export-xdpi="3218.6855"
     inkscape:export-ydpi="3218.6855" />
  <path
     inkscape:connector-curvature="0"
     id="C"
     style="font-style:normal;font-variant:normal;font-weight:normal;font-stretch:normal;font-size:9.33333302px;line-height:1.25;font-family:'Arial Rounded MT Bold';-inkscape-font-specification:'Arial Rounded MT Bold, ';letter-spacing:0px;word-spacing:0px;fill:#ffffff;fill-opacity:1;stroke:none"
     d="m -62.766076,-5.0011147 q 0,0.3190104 -0.159505,0.6927083 -0.154948,0.3691406 -0.492188,0.7291667 -0.337239,0.3554687 -0.861328,0.578776 -0.524088,0.2233073 -1.221354,0.2233073 -0.528646,0 -0.961588,-0.1002604 -0.432943,-0.1002605 -0.788412,-0.3098959 -0.350911,-0.2141927 -0.647135,-0.5605468 -0.264323,-0.3144531 -0.451172,-0.7018229 -0.186849,-0.3919271 -0.282552,-0.8339844 -0.09115,-0.4420572 -0.09115,-0.938802 0,-0.8066406 0.232422,-1.4446614 0.236979,-0.6380208 0.674479,-1.0891927 0.4375,-0.4557292 1.025391,-0.6927083 0.58789,-0.2369792 1.253255,-0.2369792 0.811198,0 1.444661,0.3235677 0.633464,0.3235677 0.970703,0.8020833 0.33724,0.4739584 0.33724,0.8977865 0,0.2324218 -0.164063,0.4101562 -0.164062,0.1777344 -0.396484,0.1777344 -0.259766,0 -0.391927,-0.1230469 -0.127604,-0.1230469 -0.287109,-0.4238281 -0.264323,-0.4967448 -0.624349,-0.7428385 -0.355469,-0.2460938 -0.879558,-0.2460938 -0.833984,0 -1.330729,0.6334635 -0.492187,0.6334636 -0.492187,1.8001302 0,0.7792968 0.21875,1.2988281 0.21875,0.5149739 0.619791,0.7701822 0.401042,0.2552084 0.938802,0.2552084 0.583334,0 0.984375,-0.2871094 0.405599,-0.2916667 0.610677,-0.8522135 0.08659,-0.2643229 0.214193,-0.4283854 0.127604,-0.1686198 0.410156,-0.1686198 0.241537,0 0.414714,0.1686198 0.173177,0.1686198 0.173177,0.4192708 z"
     inkscape:export-filename="C:\Users\Daniel\git\trntxt\resources\iconGenerator\C.png"
     inkscape:export-xdpi="3112.5271"
     inkscape:export-ydpi="3112.5271" />
  <path
     inkscape:connector-curvature="0"
     id="D"
     style="font-style:normal;font-variant:normal;font-weight:normal;font-stretch:normal;font-size:9.33333302px;line-height:1.25;font-family:'Arial Rounded MT Bold';-inkscape-font-specification:'Arial Rounded MT Bold, ';letter-spacing:0px;word-spacing:0px;fill:#ffffff;fill-opacity:1;stroke:none"
     d="m -60.710738,-9.5720781 h 1.763672 q 0.688151,0 1.180338,0.1276042 0.492188,0.1276041 0.89323,0.4785156 1.043619,0.8932291 1.043619,2.7161457 0,0.6015625 -0.104817,1.0983073 -0.104818,0.4967448 -0.323568,0.8977864 -0.21875,0.3964844 -0.560547,0.7109375 -0.26888,0.2415364 -0.587891,0.3873698 -0.31901,0.1458333 -0.688151,0.2050781 -0.364583,0.059245 -0.824869,0.059245 h -1.763672 q -0.369141,0 -0.55599,-0.109375 -0.186849,-0.1139323 -0.246093,-0.3144531 -0.05469,-0.2050782 -0.05469,-0.5286459 V -8.742651 q 0,-0.4375 0.195964,-0.6334635 0.195963,-0.1959636 0.633463,-0.1959636 z m 0.524089,1.0709635 v 4.5345051 h 1.02539 q 0.33724,0 0.528646,-0.018229 0.191406,-0.018229 0.396484,-0.091146 0.205078,-0.072917 0.355469,-0.2050781 0.679037,-0.5742188 0.679037,-1.9778646 0,-0.9889322 -0.300782,-1.4811197 -0.296224,-0.4921875 -0.733724,-0.6243489 -0.4375,-0.1367188 -1.057291,-0.1367188 z"
     inkscape:export-filename="C:\Users\Daniel\git\trntxt\resources\iconGenerator\D.png"
     inkscape:export-xdpi="3218.6855"
     inkscape:export-ydpi="3218.6855" />
  <path
     inkscape:connector-curvature="0"
     id="E"
     style="font-style:normal;font-variant:normal;font-weight:normal;font-stretch:normal;font-size:9.33333302px;line-height:1.25;font-family:'Arial Rounded MT Bold';-inkscape-font-specification:'Arial Rounded MT Bold, ';letter-spacing:0px;word-spacing:0px;fill:#ffffff;fill-opacity:1;stroke:none"
     d="m -50.238081,-8.5284583 h -3.048828 v 1.6406249 h 2.807292 q 0.309896,0 0.460286,0.1412761 0.154948,0.1367187 0.154948,0.3645833 0,0.2278646 -0.15039,0.3736979 -0.150391,0.141276 -0.464844,0.141276 h -2.807292 v 1.9003906 h 3.153646 q 0.319011,0 0.478516,0.1503906 0.164062,0.1458333 0.164062,0.3919271 0,0.2369791 -0.164062,0.3873697 -0.159505,0.1458334 -0.478516,0.1458334 h -3.677734 q -0.442057,0 -0.638021,-0.1959636 -0.191406,-0.1959635 -0.191406,-0.6334635 V -8.742651 q 0,-0.2916667 0.08659,-0.4739583 0.08659,-0.186849 0.268881,-0.2688802 0.186849,-0.086589 0.473958,-0.086589 h 3.572916 q 0.323568,0 0.478516,0.1458333 0.159505,0.1412761 0.159505,0.373698 0,0.2369791 -0.159505,0.3828124 -0.154948,0.1412761 -0.478516,0.1412761 z"
     inkscape:export-filename="C:\Users\Daniel\git\trntxt\resources\iconGenerator\E.png"
     inkscape:export-xdpi="3218.6855"
     inkscape:export-ydpi="3218.6855" />
  <path
     inkscape:connector-curvature="0"
     id="F"
     style="font-style:normal;font-variant:normal;font-weight:normal;font-stretch:normal;font-size:9.33333302px;line-height:1.25;font-family:'Arial Rounded MT Bold';-inkscape-font-specification:'Arial Rounded MT Bold, ';letter-spacing:0px;word-spacing:0px;fill:#ffffff;fill-opacity:1;stroke:none"
     d="m -44.413862,-8.5284583 h -2.666015 v 1.7089843 h 2.228515 q 0.309896,0 0.460287,0.141276 0.154948,0.1367188 0.154948,0.3691406 0,0.2324219 -0.154948,0.3691407 -0.154948,0.1367187 -0.460287,0.1367187 h -2.228515 v 2.2011718 q 0,0.4192708 -0.191407,0.6243489 -0.186848,0.2005209 -0.483072,0.2005209 -0.300782,0 -0.492188,-0.2050782 -0.186849,-0.2050781 -0.186849,-0.6197916 V -8.742651 q 0,-0.2916667 0.08659,-0.4739583 0.08659,-0.186849 0.26888,-0.2688802 0.186849,-0.086589 0.473958,-0.086589 h 3.190104 q 0.323568,0 0.478516,0.1458333 0.159505,0.1412761 0.159505,0.373698 0,0.2369791 -0.159505,0.3828124 -0.154948,0.1412761 -0.478516,0.1412761 z"
     inkscape:export-filename="C:\Users\Daniel\git\trntxt\resources\iconGenerator\F.png"
     inkscape:export-xdpi="3164.7163"
     inkscape:export-ydpi="3164.7163" />
  <path
     inkscape:connector-curvature="0"
     id="G"
     style="font-style:normal;font-variant:normal;font-weight:normal;font-stretch:normal;font-size:9.33333302px;line-height:1.25;font-family:'Arial Rounded MT Bold';-inkscape-font-specification:'Arial Rounded MT Bold, ';letter-spacing:0px;word-spacing:0px;fill:#ffffff;fill-opacity:1;stroke:none"
     d="m -36.671023,-5.6072345 v 1.2805989 q 0,0.2552084 -0.05013,0.4101563 -0.05013,0.1503906 -0.186849,0.2734375 -0.132162,0.1230468 -0.341797,0.2369791 -0.60612,0.328125 -1.166667,0.4785156 -0.560547,0.1503907 -1.221354,0.1503907 -0.770182,0 -1.403646,-0.2369792 -0.633463,-0.2369792 -1.080078,-0.688151 -0.446614,-0.4511719 -0.688151,-1.09375 -0.236979,-0.6425781 -0.236979,-1.4355468 0,-0.7792969 0.232422,-1.4264322 0.232422,-0.6471354 0.683593,-1.0983073 0.451172,-0.4511719 1.098308,-0.688151 0.647135,-0.2415365 1.467448,-0.2415365 0.674479,0 1.19401,0.1822917 0.519531,0.1777344 0.843099,0.4511719 0.323568,0.2734374 0.48763,0.578776 0.164063,0.3053385 0.164063,0.5423177 0,0.2552083 -0.191407,0.4374999 -0.186849,0.1777344 -0.451172,0.1777344 -0.145833,0 -0.282552,-0.068359 -0.132161,-0.068359 -0.223307,-0.1914062 -0.250651,-0.3919271 -0.423828,-0.5924479 -0.173177,-0.2005208 -0.469401,-0.3372396 -0.291667,-0.1367187 -0.747396,-0.1367187 -0.469401,0 -0.838541,0.1640625 -0.369141,0.1595052 -0.633464,0.469401 -0.259766,0.3053385 -0.401042,0.7519531 -0.136718,0.4466146 -0.136718,0.9889323 0,1.1757812 0.53776,1.8092447 0.542318,0.6334635 1.508464,0.6334635 0.469401,0 0.879557,-0.1230469 0.414713,-0.1230468 0.838541,-0.3509114 v -1.0846354 h -1.048177 q -0.378255,0 -0.574218,-0.1139323 -0.191407,-0.1139323 -0.191407,-0.3873697 0,-0.2233073 0.159506,-0.3691407 0.164062,-0.1458333 0.442057,-0.1458333 h 1.535807 q 0.282552,0 0.478516,0.05013 0.195963,0.05013 0.314453,0.2233073 0.123047,0.1731771 0.123047,0.519531 z"
     inkscape:export-filename="C:\Users\Daniel\git\trntxt\resources\iconGenerator\G.png"
     inkscape:export-xdpi="3112.5271"
     inkscape:export-ydpi="3112.5271" />
  <path
     inkscape:connector-curvature="0"
     id="H"
     style="font-style:normal;font-variant:normal;font-weight:normal;font-stretch:normal;font-size:9.33333302px;line-height:1.25;font-family:'Arial Rounded MT Bold';-inkscape-font-specification:'Arial Rounded MT Bold, ';letter-spacing:0px;word-spacing:0px;fill:#ffffff;fill-opacity:1;stroke:none"
     d="m -34.009567,-8.8656979 v 1.9140624 h 2.921224 v -1.9140624 q 0,-0.4101562 0.182291,-0.6152343 0.186849,-0.2050782 0.48763,-0.2050782 0.305339,0 0.492188,0.2050782 0.191406,0.2005208 0.191406,0.6152343 v 5.2636717 q 0,0.4147135 -0.191406,0.6197916 -0.191406,0.2050782 -0.492188,0.2050782 -0.305338,0 -0.48763,-0.2050782 -0.182291,-0.2096354 -0.182291,-0.6197916 v -2.2467447 h -2.921224 v 2.2467447 q 0,0.4147135 -0.191407,0.6197916 -0.191406,0.2050782 -0.492187,0.2050782 -0.305339,0 -0.48763,-0.2050782 -0.182292,-0.2096354 -0.182292,-0.6197916 v -5.2636717 q 0,-0.4101562 0.177734,-0.6152343 0.182292,-0.2050782 0.492188,-0.2050782 0.305338,0 0.492187,0.2050782 0.191407,0.2005208 0.191407,0.6152343 z"
     inkscape:export-filename="C:\Users\Daniel\git\trntxt\resources\iconGenerator\H.png"
     inkscape:export-xdpi="3112.5271"
     inkscape:export-ydpi="3112.5271" />
  <path
     inkscape:connector-curvature="0"
     id="I"
     style="font-style:normal;font-variant:normal;font-weight:normal;font-stretch:normal;font-size:9.33333302px;line-height:1.25;font-family:'Arial Rounded MT Bold';-inkscape-font-specification:'Arial Rounded MT Bold, ';letter-spacing:0px;word-spacing:0px;fill:#ffffff;fill-opacity:1;stroke:none"
     d="m -28.226362,-3.6020262 v -5.2636717 q 0,-0.4101562 0.186849,-0.6152343 0.186849,-0.2050782 0.483073,-0.2050782 0.305339,0 0.492188,0.2050782 0.191406,0.2005208 0.191406,0.6152343 v 5.2636717 q 0,0.4147135 -0.191406,0.6197916 -0.186849,0.2050782 -0.492188,0.2050782 -0.291666,0 -0.483073,-0.2050782 -0.186849,-0.2096354 -0.186849,-0.6197916 z"
     inkscape:export-filename="C:\Users\Daniel\git\trntxt\resources\iconGenerator\I.png"
     inkscape:export-xdpi="3112.5271"
     inkscape:export-ydpi="3112.5271" />
  <path
     inkscape:connector-curvature="0"
     id="J"
     style="font-style:normal;font-variant:normal;font-weight:normal;font-stretch:normal;font-size:9.33333302px;line-height:1.25;font-family:'Arial Rounded MT Bold';-inkscape-font-specification:'Arial Rounded MT Bold, ';letter-spacing:0px;word-spacing:0px;fill:#ffffff;fill-opacity:1;stroke:none"
     d="m -21.481573,-8.8656979 v 3.4999999 q 0,0.4557291 -0.04101,0.7747395 -0.03646,0.3190104 -0.173177,0.6471354 -0.227865,0.5514323 -0.751953,0.8613281 -0.524089,0.3053386 -1.276042,0.3053386 -0.679036,0 -1.134766,-0.2141927 -0.451171,-0.2141927 -0.729166,-0.6927083 -0.145834,-0.2552084 -0.236979,-0.5878907 -0.09115,-0.3326822 -0.09115,-0.6334635 0,-0.3190104 0.177734,-0.4876302 0.177734,-0.1686197 0.455729,-0.1686197 0.26888,0 0.405599,0.1549479 0.136719,0.1549479 0.209636,0.4830729 0.07747,0.3509114 0.154948,0.5605468 0.07747,0.2096354 0.259765,0.360026 0.182292,0.1503907 0.519531,0.1503907 0.897787,0 0.897787,-1.3170573 v -3.6959634 q 0,-0.4101562 0.177734,-0.6152343 0.182292,-0.2050782 0.492188,-0.2050782 0.314453,0 0.496744,0.2050782 0.186849,0.2050781 0.186849,0.6152343 z"
     inkscape:export-filename="C:\Users\Daniel\git\trntxt\resources\iconGenerator\J.png"
     inkscape:export-xdpi="3112.5271"
     inkscape:export-ydpi="3112.5271" />
  <path
     inkscape:connector-curvature="0"
     id="K"
     style="font-style:normal;font-variant:normal;font-weight:normal;font-stretch:normal;font-size:9.33333302px;line-height:1.25;font-family:'Arial Rounded MT Bold';-inkscape-font-specification:'Arial Rounded MT Bold, ';letter-spacing:0px;word-spacing:0px;fill:#ffffff;fill-opacity:1;stroke:none"
     d="m -18.64238,-8.8656979 v 2.3424478 l 2.656901,-2.7708332 q 0.191406,-0.2005208 0.323568,-0.2962239 0.136719,-0.095703 0.360026,-0.095703 0.291667,0 0.469401,0.1731771 0.182292,0.1686198 0.182292,0.4147135 0,0.296224 -0.305339,0.5878906 l -1.645182,1.5585937 1.895833,2.7161458 q 0.200521,0.2825521 0.300781,0.4967448 0.100261,0.2096354 0.100261,0.4101562 0,0.2233073 -0.177735,0.3873698 -0.173177,0.1640625 -0.473958,0.1640625 -0.282552,0 -0.460286,-0.1184896 -0.177735,-0.1230469 -0.300782,-0.3235677 -0.123047,-0.2005208 -0.21875,-0.3645833 l -1.599609,-2.4609375 -1.107422,1.061849 v 1.3808593 q 0,0.4192708 -0.191406,0.6243489 -0.191406,0.2005209 -0.492188,0.2005209 -0.173177,0 -0.332682,-0.091146 -0.159505,-0.091146 -0.246094,-0.2460937 -0.0638,-0.1276042 -0.07747,-0.296224 -0.01367,-0.1686197 -0.01367,-0.4876301 v -4.9674478 q 0,-0.4101562 0.177734,-0.6152343 0.182292,-0.2050782 0.492187,-0.2050782 0.305339,0 0.492188,0.2050782 0.191406,0.2005208 0.191406,0.6152343 z"
     inkscape:export-filename="C:\Users\Daniel\git\trntxt\resources\iconGenerator\K.png"
     inkscape:export-xdpi="3112.5271"
     inkscape:export-ydpi="3112.5271" />
  <path
     inkscape:connector-curvature="0"
     id="L"
     style="font-style:normal;font-variant:normal;font-weight:normal;font-stretch:normal;font-size:9.33333302px;line-height:1.25;font-family:'Arial Rounded MT Bold';-inkscape-font-specification:'Arial Rounded MT Bold, ';letter-spacing:0px;word-spacing:0px;fill:#ffffff;fill-opacity:1;stroke:none"
     d="m -11.769987,-8.8656979 v 4.86263 h 2.7434899 q 0.328125,0 0.5013021,0.1595052 0.1777344,0.1595053 0.1777344,0.4010417 0,0.2460937 -0.1731771,0.4010417 -0.1731771,0.1503906 -0.5058594,0.1503906 h -3.2675779 q -0.442057,0 -0.638021,-0.1959636 -0.191406,-0.1959635 -0.191406,-0.6334635 v -5.1451821 q 0,-0.4101562 0.182292,-0.6152343 0.186848,-0.2050782 0.48763,-0.2050782 0.305338,0 0.492187,0.2050782 0.191406,0.2005208 0.191406,0.6152343 z"
     inkscape:export-filename="C:\Users\Daniel\git\trntxt\resources\iconGenerator\L.png"
     inkscape:export-xdpi="3112.5271"
     inkscape:export-ydpi="3112.5271" />
  <path
     inkscape:connector-curvature="0"
     id="M"
     style="font-style:normal;font-variant:normal;font-weight:normal;font-stretch:normal;font-size:9.33333302px;line-height:1.25;font-family:'Arial Rounded MT Bold';-inkscape-font-specification:'Arial Rounded MT Bold, ';letter-spacing:0px;word-spacing:0px;fill:#ffffff;fill-opacity:1;stroke:none"
     d="m -5.2074866,-3.8982501 -1.0709635,-4.2565103 v 4.611979 q 0,0.3828125 -0.1731771,0.5742187 -0.1686197,0.1914063 -0.4511718,0.1914063 -0.2734375,0 -0.4466146,-0.186849 -0.1731771,-0.1914062 -0.1731771,-0.578776 v -5.2864582 q 0,-0.4374999 0.2278646,-0.5878906 0.2278646,-0.1549479 0.6152344,-0.1549479 h 0.4192708 q 0.3782552,0 0.546875,0.068359 0.173177,0.068359 0.2552083,0.2460937 0.082031,0.1777344 0.1868489,0.5787761 l 0.9707031,3.659505 0.9707031,-3.659505 q 0.1048177,-0.4010417 0.186849,-0.5787761 0.082031,-0.1777343 0.250651,-0.2460937 0.1731771,-0.068359 0.5514323,-0.068359 h 0.4192708 q 0.3873698,0 0.6152344,0.1549479 0.2278645,0.1503907 0.2278645,0.5878906 v 5.2864582 q 0,0.3828125 -0.173177,0.5742187 -0.1686198,0.1914063 -0.4557292,0.1914063 -0.2688802,0 -0.4420573,-0.1914063 -0.173177,-0.1914062 -0.173177,-0.5742187 v -4.611979 l -1.0709636,4.2565103 q -0.1048177,0.4147135 -0.173177,0.610677 -0.063802,0.1914063 -0.2415365,0.3509115 -0.1777343,0.1595052 -0.4921875,0.1595052 -0.2369791,0 -0.4010416,-0.1048177 -0.1640625,-0.1002605 -0.2552083,-0.2597657 -0.091146,-0.1595052 -0.1458334,-0.3509114 -0.05013,-0.1959635 -0.1048177,-0.4055989 z"
     inkscape:export-filename="C:\Users\Daniel\git\trntxt\resources\iconGenerator\M.png"
     inkscape:export-xdpi="3112.5271"
     inkscape:export-ydpi="3112.5271" />
  <path
     inkscape:connector-curvature="0"
     id="N"
     style="font-style:normal;font-variant:normal;font-weight:normal;font-stretch:normal;font-size:9.33333302px;line-height:1.25;font-family:'Arial Rounded MT Bold';-inkscape-font-specification:'Arial Rounded MT Bold, ';letter-spacing:0px;word-spacing:0px;fill:#ffffff;fill-opacity:1;stroke:none"
     d="m 2.0841852,-8.8748125 2.6022135,3.9374999 v -3.9739582 q 0,-0.3873698 0.1640624,-0.578776 0.1686198,-0.1959636 0.4511719,-0.1959636 0.2916667,0 0.4602864,0.1959636 0.1686198,0.1914062 0.1686198,0.578776 v 5.2545571 q 0,0.8795573 -0.7291666,0.8795573 -0.1822917,0 -0.328125,-0.054687 Q 4.7274143,-2.8819741 4.5998101,-2.9959064 4.4722059,-3.1098387 4.362831,-3.2602293 4.253456,-3.4151772 4.144081,-3.5746825 L 1.6056696,-7.4666094 v 3.9147134 q 0,0.3828125 -0.1777344,0.578776 -0.1777343,0.1959636 -0.45572913,0.1959636 -0.28710937,0 -0.46028644,-0.1959636 -0.17317708,-0.2005208 -0.17317708,-0.578776 v -5.1542967 q 0,-0.328125 0.0729167,-0.5149739 0.0865885,-0.2050782 0.28710937,-0.3326823 0.20052082,-0.1321615 0.43294268,-0.1321615 0.1822916,0 0.3098958,0.059245 0.1321614,0.059245 0.2278646,0.1595052 0.1002604,0.1002604 0.2005208,0.2597656 0.1048177,0.1595052 0.2141927,0.3326821 z"
     inkscape:export-filename="C:\Users\Daniel\git\trntxt\resources\iconGenerator\N.png"
     inkscape:export-xdpi="3112.5271"
     inkscape:export-ydpi="3112.5271" />
  <path
     inkscape:connector-curvature="0"
     id="O"
     style="font-style:normal;font-variant:normal;font-weight:normal;font-stretch:normal;font-size:9.33333302px;line-height:1.25;font-family:'Arial Rounded MT Bold';-inkscape-font-specification:'Arial Rounded MT Bold, ';letter-spacing:0px;word-spacing:0px;fill:#ffffff;fill-opacity:1;stroke:none"
     d="m 10.351107,-9.6860104 q 1.039063,0 1.781901,0.4238281 0.747396,0.4192709 1.130208,1.1985677 0.382813,0.7747396 0.382813,1.8229166 0,0.7747396 -0.209635,1.4082031 -0.209636,0.6334635 -0.628907,1.0983072 -0.419271,0.4648438 -1.029948,0.7109375 -0.610677,0.2460938 -1.399088,0.2460938 -0.7838542,0 -1.4036459,-0.2506511 Q 8.3550135,-3.2830158 7.9402999,-3.7433022 7.5255864,-4.2035887 7.3113937,-4.8507241 7.1017583,-5.4978595 7.1017583,-6.2498126 q 0,-0.7701822 0.21875,-1.4127603 0.2233073,-0.6425781 0.6425781,-1.09375 0.4192708,-0.4511719 1.0208333,-0.688151 0.6015625,-0.2415365 1.3671873,-0.2415365 z m 1.923177,3.4361978 q 0,-0.7337239 -0.236979,-1.2714843 -0.236979,-0.5377604 -0.679036,-0.8111979 -0.4375,-0.2779948 -1.007162,-0.2779948 -0.4055988,0 -0.7519529,0.1549479 -0.3417969,0.1503907 -0.5924479,0.4420573 -0.2460938,0.2916667 -0.3919271,0.7473958 -0.141276,0.4511719 -0.141276,1.016276 0,0.5696615 0.141276,1.0299479 0.1458333,0.4602865 0.4055989,0.765625 0.2643229,0.3007812 0.6015625,0.4511718 0.3417969,0.1503907 0.7473955,0.1503907 0.519532,0 0.952474,-0.2597656 0.4375,-0.2597657 0.692709,-0.8020834 0.259765,-0.5423176 0.259765,-1.3352864 z"
     inkscape:export-filename="C:\Users\Daniel\git\trntxt\resources\iconGenerator\O.png"
     inkscape:export-xdpi="3112.5271"
     inkscape:export-ydpi="3112.5271" />
  <path
     inkscape:connector-curvature="0"
     id="P"
     style="font-style:normal;font-variant:normal;font-weight:normal;font-stretch:normal;font-size:9.33333302px;line-height:1.25;font-family:'Arial Rounded MT Bold';-inkscape-font-specification:'Arial Rounded MT Bold, ';letter-spacing:0px;word-spacing:0px;fill:#ffffff;fill-opacity:1;stroke:none"
     d="m 17.4058,-5.4933022 h -1.239584 v 1.891276 q 0,0.4055989 -0.191406,0.6152344 -0.191406,0.2096354 -0.483073,0.2096354 -0.305338,0 -0.492187,-0.2050782 -0.186849,-0.2096354 -0.186849,-0.610677 V -8.742651 q 0,-0.4466146 0.205078,-0.6380208 0.205078,-0.1914063 0.651693,-0.1914063 H 17.4058 q 0.770182,0 1.184896,0.1184896 0.410156,0.1139323 0.70638,0.3782552 0.300781,0.2643229 0.455729,0.6471354 0.154948,0.3828125 0.154948,0.8613281 0,1.0208333 -0.628906,1.5494791 -0.628907,0.5240885 -1.873047,0.5240885 z m -0.328125,-3.0624999 h -0.911459 v 2.0416666 h 0.911459 q 0.478515,0 0.797526,-0.1002604 0.323567,-0.1002604 0.492187,-0.328125 0.16862,-0.2278646 0.16862,-0.5970052 0,-0.4420572 -0.259766,-0.720052 -0.291666,-0.296224 -1.198567,-0.296224 z"
     inkscape:export-filename="C:\Users\Daniel\git\trntxt\resources\iconGenerator\P.png"
     inkscape:export-xdpi="3164.7163"
     inkscape:export-ydpi="3164.7163" />
  <path
     inkscape:connector-curvature="0"
     id="Q"
     style="font-style:normal;font-variant:normal;font-weight:normal;font-stretch:normal;font-size:9.33333302px;line-height:1.25;font-family:'Arial Rounded MT Bold';-inkscape-font-specification:'Arial Rounded MT Bold, ';letter-spacing:0px;word-spacing:0px;fill:#ffffff;fill-opacity:1;stroke:none"
     d="m 26.420123,-3.7205158 q 0.296224,0.2005208 0.647135,0.3919271 0.350911,0.1868489 0.464844,0.3007812 0.113932,0.109375 0.113932,0.3144531 0,0.1458334 -0.136719,0.2916667 -0.132161,0.1458333 -0.323567,0.1458333 -0.154948,0 -0.378256,-0.1002604 -0.21875,-0.1002604 -0.519531,-0.2916666 -0.296224,-0.1914063 -0.651693,-0.4466146 -0.660807,0.3372396 -1.622395,0.3372396 -0.779297,0 -1.399089,-0.2460938 -0.615234,-0.250651 -1.034505,-0.7154947 -0.419271,-0.4694011 -0.633464,-1.1119792 -0.209635,-0.6425781 -0.209635,-1.3990885 0,-0.7701822 0.21875,-1.4127603 0.223307,-0.6425781 0.642578,-1.09375 0.419271,-0.4511719 1.020833,-0.688151 0.601563,-0.2415365 1.367188,-0.2415365 1.039062,0 1.781901,0.4238281 0.747396,0.4192709 1.130208,1.1985677 0.382813,0.7747396 0.382813,1.8229166 0,1.5904948 -0.861328,2.5201822 z M 25.358274,-4.458797 q 0.282552,-0.3235677 0.414713,-0.765625 0.136719,-0.4420573 0.136719,-1.0253906 0,-0.7337239 -0.236979,-1.2714843 -0.236979,-0.5377604 -0.679037,-0.8111979 -0.4375,-0.2779948 -1.007161,-0.2779948 -0.405599,0 -0.751953,0.1549479 -0.341797,0.1503907 -0.592448,0.4420573 -0.246094,0.2916667 -0.391927,0.7473958 -0.141276,0.4511719 -0.141276,1.016276 0,1.1529948 0.53776,1.7773437 0.537761,0.6197917 1.358073,0.6197917 0.33724,0 0.692708,-0.1412761 -0.214192,-0.1595052 -0.53776,-0.3190104 -0.31901,-0.1595052 -0.4375,-0.2460937 -0.11849,-0.086589 -0.11849,-0.2460938 0,-0.1367187 0.113933,-0.2415364 0.113932,-0.1048177 0.250651,-0.1048177 0.414713,0 1.389974,0.6927083 z"
     inkscape:export-filename="C:\Users\Daniel\git\trntxt\resources\iconGenerator\Q.png"
     inkscape:export-xdpi="2901.9631"
     inkscape:export-ydpi="2901.9631" />
  <path
     inkscape:connector-curvature="0"
     id="R"
     style="font-style:normal;font-variant:normal;font-weight:normal;font-stretch:normal;font-size:9.33333302px;line-height:1.25;font-family:'Arial Rounded MT Bold';-inkscape-font-specification:'Arial Rounded MT Bold, ';letter-spacing:0px;word-spacing:0px;fill:#ffffff;fill-opacity:1;stroke:none"
     d="m 30.266474,-5.7485105 h -0.473958 v 2.1464843 q 0,0.4238281 -0.186849,0.6243489 -0.186849,0.2005209 -0.48763,0.2005209 -0.323568,0 -0.501302,-0.2096354 Q 28.439,-3.1964273 28.439,-3.6020262 V -8.742651 q 0,-0.4375 0.195964,-0.6334635 0.195963,-0.1959636 0.633463,-0.1959636 h 2.201172 q 0.455729,0 0.779297,0.041016 0.323568,0.036458 0.583333,0.154948 0.314454,0.1321614 0.55599,0.3782552 0.241536,0.2460937 0.364583,0.5742187 0.127604,0.3235677 0.127604,0.688151 0,0.7473958 -0.423828,1.1940104 -0.41927,0.4466145 -1.276041,0.6334635 0.360026,0.1914062 0.688151,0.5651041 0.328125,0.3736979 0.583333,0.7975261 0.259766,0.4192708 0.401042,0.7610676 0.145833,0.3372396 0.145833,0.4648438 0,0.1321614 -0.08659,0.2643229 -0.08203,0.1276041 -0.227865,0.2005208 -0.145833,0.077474 -0.33724,0.077474 -0.227864,0 -0.382812,-0.109375 -0.154948,-0.1048177 -0.26888,-0.2688802 -0.109375,-0.1640625 -0.300782,-0.4830729 L 31.852412,-4.5408283 Q 31.560745,-5.037573 31.328323,-5.2973386 31.100459,-5.5571043 30.86348,-5.6528074 30.6265,-5.7485105 30.266474,-5.7485105 Z m 0.77474,-2.8072916 h -1.248698 v 1.8365885 h 1.21224 q 0.48763,0 0.820312,-0.082031 0.332682,-0.086589 0.505859,-0.2871094 0.177735,-0.2050781 0.177735,-0.5605469 0,-0.2779947 -0.141276,-0.4876302 -0.141276,-0.2141927 -0.391927,-0.3190104 -0.23698,-0.1002604 -0.934245,-0.1002606 z"
     inkscape:export-filename="C:\Users\Daniel\git\trntxt\resources\iconGenerator\R.png"
     inkscape:export-xdpi="3164.7163"
     inkscape:export-ydpi="3164.7163" />
  <path
     inkscape:connector-curvature="0"
     id="S"
     style="font-style:normal;font-variant:normal;font-weight:normal;font-stretch:normal;font-size:9.33333302px;line-height:1.25;font-family:'Arial Rounded MT Bold';-inkscape-font-specification:'Arial Rounded MT Bold, ';letter-spacing:0px;word-spacing:0px;fill:#ffffff;fill-opacity:1;stroke:none"
     d="m 40.233274,-4.896297 q 0,0.6061198 -0.314453,1.0891927 -0.309896,0.4830729 -0.911459,0.7565104 -0.601562,0.2734375 -1.426432,0.2734375 -0.988932,0 -1.63151,-0.3736979 -0.45573,-0.2688802 -0.742839,-0.7154948 -0.282552,-0.4511719 -0.282552,-0.875 0,-0.2460937 0.16862,-0.4192708 0.173177,-0.1777344 0.4375,-0.1777344 0.214192,0 0.360026,0.1367188 0.15039,0.1367187 0.255208,0.4055989 0.127604,0.3190104 0.273438,0.5332031 0.15039,0.2141927 0.41927,0.3554688 0.268881,0.1367187 0.706381,0.1367187 0.601562,0 0.97526,-0.2779948 0.378255,-0.282552 0.378255,-0.7018229 0,-0.3326822 -0.205078,-0.5377604 -0.200521,-0.2096354 -0.524088,-0.3190104 -0.319011,-0.109375 -0.856771,-0.2324218 -0.720052,-0.1686198 -1.207682,-0.3919271 -0.483073,-0.2278646 -0.770183,-0.6152344 -0.282552,-0.391927 -0.282552,-0.970703 0,-0.5514323 0.300781,-0.9798177 0.300782,-0.4283854 0.870443,-0.65625 0.569662,-0.2324219 1.339844,-0.2324219 0.615234,0 1.061849,0.1549479 0.451172,0.1503907 0.747396,0.405599 0.296223,0.250651 0.432942,0.5286458 0.136719,0.2779948 0.136719,0.5423177 0,0.2415364 -0.173177,0.4375 -0.16862,0.1914062 -0.423828,0.1914062 -0.232422,0 -0.355469,-0.1139323 -0.11849,-0.1184895 -0.259766,-0.3828125 -0.182291,-0.3782551 -0.4375,-0.5878906 -0.255208,-0.2141927 -0.820312,-0.2141927 -0.524089,0 -0.847656,0.2324219 -0.319011,0.2278646 -0.319011,0.5514323 0,0.2005208 0.109375,0.3463541 0.109375,0.1458334 0.300782,0.2506511 0.191406,0.1048177 0.387369,0.1640625 0.195964,0.059245 0.647136,0.173177 0.565104,0.1321615 1.020833,0.2916667 0.460286,0.1595052 0.779297,0.3873698 0.323568,0.2278646 0.501302,0.578776 0.182292,0.3463542 0.182292,0.8522135 z"
     inkscape:export-filename="C:\Users\Daniel\git\trntxt\resources\iconGenerator\S.png"
     inkscape:export-xdpi="3112.5271"
     inkscape:export-ydpi="3112.5271" />
  <path
     inkscape:connector-curvature="0"
     id="T"
     style="font-style:normal;font-variant:normal;font-weight:normal;font-stretch:normal;font-size:9.33333302px;line-height:1.25;font-family:'Arial Rounded MT Bold';-inkscape-font-specification:'Arial Rounded MT Bold, ';letter-spacing:0px;word-spacing:0px;fill:#ffffff;fill-opacity:1;stroke:none"
     d="m 45.729367,-8.4555417 h -1.476562 v 4.8535155 q 0,0.4192708 -0.186849,0.6243489 -0.186849,0.2005209 -0.483073,0.2005209 -0.300781,0 -0.492187,-0.2050782 -0.186849,-0.2050781 -0.186849,-0.6197916 v -4.8535155 h -1.476563 q -0.346354,0 -0.514974,-0.1503906 -0.16862,-0.1549479 -0.16862,-0.4055989 0,-0.2597656 0.173178,-0.4101563 0.177734,-0.1503906 0.510416,-0.1503906 h 4.302083 q 0.350912,0 0.519532,0.1549479 0.173177,0.1549479 0.173177,0.405599 0,0.250651 -0.173177,0.4055989 -0.173177,0.1503906 -0.519532,0.1503906 z"
     inkscape:export-filename="C:\Users\Daniel\git\trntxt\resources\iconGenerator\T.png"
     inkscape:export-xdpi="3164.7163"
     inkscape:export-ydpi="3164.7163" />
  <path
     inkscape:connector-curvature="0"
     id="U"
     style="font-style:normal;font-variant:normal;font-weight:normal;font-stretch:normal;font-size:9.33333302px;line-height:1.25;font-family:'Arial Rounded MT Bold';-inkscape-font-specification:'Arial Rounded MT Bold, ';letter-spacing:0px;word-spacing:0px;fill:#ffffff;fill-opacity:1;stroke:none"
     d="m 47.233269,-5.6528074 v -3.2128905 q 0,-0.4101562 0.182291,-0.6152343 0.186849,-0.2050782 0.487631,-0.2050782 0.314453,0 0.496744,0.2050782 0.186849,0.2050781 0.186849,0.6152343 v 3.2858072 q 0,0.5605468 0.123047,0.938802 0.127604,0.3736979 0.446615,0.5833333 0.31901,0.2050782 0.893229,0.2050782 0.792969,0 1.121094,-0.4192709 0.328125,-0.4238281 0.328125,-1.2805989 v -3.3131509 q 0,-0.4147135 0.182291,-0.6152343 0.182292,-0.2050782 0.48763,-0.2050782 0.305339,0 0.492188,0.2050782 0.191406,0.2005208 0.191406,0.6152343 v 3.2128905 q 0,0.7838542 -0.154948,1.3079427 -0.15039,0.5240885 -0.574218,0.9205729 -0.364584,0.3372395 -0.847657,0.4921875 -0.483073,0.1549479 -1.130208,0.1549479 -0.770182,0 -1.326172,-0.1640625 -0.555989,-0.1686198 -0.906901,-0.514974 -0.350911,-0.3509114 -0.514974,-0.8932291 -0.164062,-0.546875 -0.164062,-1.3033854 z"
     inkscape:export-filename="C:\Users\Daniel\git\trntxt\resources\iconGenerator\U.png"
     inkscape:export-xdpi="3112.5271"
     inkscape:export-ydpi="3112.5271" />
  <path
     inkscape:connector-curvature="0"
     id="V"
     style="font-style:normal;font-variant:normal;font-weight:normal;font-stretch:normal;font-size:9.33333302px;line-height:1.25;font-family:'Arial Rounded MT Bold';-inkscape-font-specification:'Arial Rounded MT Bold, ';letter-spacing:0px;word-spacing:0px;fill:#ffffff;fill-opacity:1;stroke:none"
     d="m 55.304227,-8.7973385 1.513021,4.4798175 1.517578,-4.5117186 q 0.11849,-0.3554687 0.177734,-0.4921874 0.05924,-0.1412761 0.195964,-0.2506511 0.136719,-0.1139323 0.373698,-0.1139323 0.173177,0 0.31901,0.086589 0.150391,0.086588 0.232422,0.2324218 0.08659,0.1412761 0.08659,0.2871094 0,0.1002604 -0.02734,0.21875 -0.02734,0.1139323 -0.06836,0.2278646 -0.04102,0.109375 -0.08203,0.2278645 l -1.617838,4.3658853 q -0.08659,0.250651 -0.173177,0.4785156 -0.08659,0.2233073 -0.200521,0.3964844 -0.113932,0.1686198 -0.305339,0.2779948 -0.186849,0.109375 -0.460286,0.109375 -0.273438,0 -0.464844,-0.109375 -0.186849,-0.1048177 -0.305338,-0.2779948 -0.113933,-0.1777344 -0.200521,-0.4010417 -0.08659,-0.2233073 -0.173177,-0.4739583 l -1.590495,-4.3294269 q -0.04102,-0.1184896 -0.08659,-0.2324219 -0.04101,-0.1139323 -0.07292,-0.2460937 -0.02734,-0.1321615 -0.02734,-0.2233073 0,-0.2324219 0.186849,-0.4238281 0.186849,-0.1914063 0.469401,-0.1914063 0.346354,0 0.48763,0.2141927 0.145834,0.2096354 0.296224,0.6744792 z"
     inkscape:export-filename="C:\Users\Daniel\git\trntxt\resources\iconGenerator\V.png"
     inkscape:export-xdpi="3112.5271"
     inkscape:export-ydpi="3112.5271" />
  <path
     inkscape:connector-curvature="0"
     id="W"
     style="font-style:normal;font-variant:normal;font-weight:normal;font-stretch:normal;font-size:9.33333302px;line-height:1.25;font-family:'Arial Rounded MT Bold';-inkscape-font-specification:'Arial Rounded MT Bold, ';letter-spacing:0px;word-spacing:0px;fill:#ffffff;fill-opacity:1;stroke:none"
     d="m 65.462435,-3.9438231 -1.080078,-4.0058592 -1.09375,4.0058592 q -0.127604,0.4557292 -0.205078,0.65625 -0.07292,0.1959635 -0.259766,0.3554688 -0.186849,0.1549479 -0.496744,0.1549479 -0.250651,0 -0.414714,-0.095703 -0.159505,-0.091146 -0.259765,-0.2597656 -0.100261,-0.1731771 -0.164063,-0.4055989 -0.0638,-0.2369792 -0.113932,-0.4375 l -1.111979,-4.4980467 q -0.100261,-0.3919271 -0.100261,-0.5970052 0,-0.2597656 0.182292,-0.4375 0.182292,-0.1777344 0.451172,-0.1777344 0.36914,0 0.496744,0.2369792 0.127605,0.2369791 0.223308,0.688151 l 0.875,3.9010415 0.979817,-3.6503905 q 0.109375,-0.419271 0.195964,-0.638021 0.08659,-0.21875 0.282552,-0.3782552 0.195964,-0.1595052 0.533203,-0.1595052 0.341797,0 0.528646,0.1686198 0.191406,0.1640625 0.264323,0.360026 0.07292,0.1959636 0.195963,0.6471354 l 0.988933,3.6503905 0.875,-3.9010415 q 0.0638,-0.3053385 0.118489,-0.4785156 0.05924,-0.1731771 0.195964,-0.3098958 0.141276,-0.1367188 0.405599,-0.1367188 0.264323,0 0.446614,0.1777344 0.186849,0.1731771 0.186849,0.4375 0,0.1868489 -0.10026,0.5970052 l -1.111979,4.4980467 q -0.113933,0.4557291 -0.191407,0.6699218 -0.07292,0.2096355 -0.255208,0.3691407 -0.177734,0.1595052 -0.505859,0.1595052 -0.309896,0 -0.496745,-0.1549479 -0.186849,-0.154948 -0.259766,-0.3463542 -0.07292,-0.1959635 -0.205078,-0.6653646 z"
     inkscape:export-filename="C:\Users\Daniel\git\trntxt\resources\iconGenerator\W.png"
     inkscape:export-xdpi="3112.5271"
     inkscape:export-ydpi="3112.5271" />
  <path
     inkscape:connector-curvature="0"
     id="X"
     style="font-style:normal;font-variant:normal;font-weight:normal;font-stretch:normal;font-size:9.33333302px;line-height:1.25;font-family:'Arial Rounded MT Bold';-inkscape-font-specification:'Arial Rounded MT Bold, ';letter-spacing:0px;word-spacing:0px;fill:#ffffff;fill-opacity:1;stroke:none"
     d="m 69.235873,-4.1899168 1.494792,-2.1829426 -1.257813,-1.9414062 q -0.177734,-0.2825521 -0.26888,-0.4830729 -0.08659,-0.2050781 -0.08659,-0.3919271 0,-0.1914062 0.16862,-0.3417969 0.173177,-0.1549479 0.419271,-0.1549479 0.282552,0 0.4375,0.1686198 0.159505,0.1640625 0.4375,0.6152344 l 1.002604,1.6223958 1.070964,-1.6223958 q 0.132161,-0.2050781 0.223307,-0.3509115 0.0957,-0.1458333 0.182291,-0.2415364 0.08659,-0.095703 0.191407,-0.1412761 0.109375,-0.05013 0.250651,-0.05013 0.255208,0 0.414713,0.1549479 0.164063,0.1503907 0.164063,0.3600261 0,0.3053385 -0.350912,0.829427 l -1.317057,1.96875 1.417318,2.1829426 q 0.191406,0.2871094 0.277995,0.4785156 0.08659,0.186849 0.08659,0.3554687 0,0.1595052 -0.07747,0.2916667 -0.07747,0.1321615 -0.21875,0.2096354 -0.141276,0.077474 -0.31901,0.077474 -0.191407,0 -0.323568,-0.082031 -0.132161,-0.077474 -0.214193,-0.1959635 -0.08203,-0.1184896 -0.305338,-0.4602865 l -1.175781,-1.8502603 -1.248698,1.9049478 q -0.145834,0.2278646 -0.209636,0.3190104 -0.05925,0.091146 -0.145833,0.1777344 -0.08659,0.086589 -0.205078,0.1367188 -0.11849,0.05013 -0.277995,0.05013 -0.246094,0 -0.410156,-0.1503907 -0.159505,-0.1503906 -0.159505,-0.4374999 0,-0.3372396 0.332682,-0.8248698 z"
     inkscape:export-filename="C:\Users\Daniel\git\trntxt\resources\iconGenerator\X.png"
     inkscape:export-xdpi="3112.5271"
     inkscape:export-ydpi="3112.5271" />
  <path
     inkscape:connector-curvature="0"
     id="Y"
     style="font-style:normal;font-variant:normal;font-weight:normal;font-stretch:normal;font-size:9.33333302px;line-height:1.25;font-family:'Arial Rounded MT Bold';-inkscape-font-specification:'Arial Rounded MT Bold, ';letter-spacing:0px;word-spacing:0px;fill:#ffffff;fill-opacity:1;stroke:none"
     d="m 76.605013,-3.6020262 v -2.1191406 l -1.63151,-2.5292967 q -0.214193,-0.3417969 -0.305338,-0.5332031 -0.08659,-0.1914063 -0.08659,-0.3326823 0,-0.2324219 0.177734,-0.4010417 0.182292,-0.1686198 0.446615,-0.1686198 0.277995,0 0.419271,0.1595052 0.145833,0.1549479 0.432942,0.624349 l 1.248698,2.0279947 1.26237,-2.0279947 q 0.113932,-0.186849 0.191406,-0.3144531 0.07747,-0.1276042 0.16862,-0.2369792 0.0957,-0.1139323 0.209636,-0.1731771 0.113932,-0.059245 0.277994,-0.059245 0.255209,0 0.423828,0.1686198 0.173178,0.1640625 0.173178,0.3828125 0,0.1777344 -0.08659,0.3554687 -0.08659,0.1777344 -0.296224,0.4921875 l -1.672526,2.5657551 v 2.1191406 q 0,0.4147135 -0.191406,0.6197916 -0.191406,0.2050782 -0.48763,0.2050782 -0.300782,0 -0.487631,-0.2005209 -0.186849,-0.2050781 -0.186849,-0.6243489 z"
     inkscape:export-filename="C:\Users\Daniel\git\trntxt\resources\iconGenerator\Y.png"
     inkscape:export-xdpi="3112.5271"
     inkscape:export-ydpi="3112.5271" />
  <path
     inkscape:connector-curvature="0"
     id="Z"
     style="font-style:normal;font-variant:normal;font-weight:normal;font-stretch:normal;font-size:9.33333302px;line-height:1.25;font-family:'Arial Rounded MT Bold';-inkscape-font-specification:'Arial Rounded MT Bold, ';letter-spacing:0px;word-spacing:0px;fill:#ffffff;fill-opacity:1;stroke:none"
     d="m 80.770373,-4.4496824 3.431641,-4.1061197 h -2.948568 q -0.309896,0 -0.469401,-0.1367187 -0.154948,-0.1367188 -0.154948,-0.360026 0,-0.2324219 0.154948,-0.373698 0.159505,-0.1458333 0.469401,-0.1458333 h 3.800781 q 0.738281,0 0.738281,0.688151 0,0.328125 -0.123047,0.5240886 -0.123046,0.1959635 -0.496744,0.6334635 l -3.208334,3.8190103 h 3.536459 q 0.314453,0 0.469401,0.1321614 0.154948,0.1276042 0.154948,0.3600261 0,0.2415364 -0.154948,0.3828124 -0.154948,0.1412761 -0.469401,0.1412761 H 81.1623 q -0.442057,0 -0.665364,-0.1959636 -0.223308,-0.2005208 -0.223308,-0.5332031 0,-0.1139323 0.03646,-0.2096354 0.03646,-0.095703 0.0957,-0.1777343 0.0638,-0.086589 0.173177,-0.2141927 0.109375,-0.1321615 0.191406,-0.2278646 z"
     inkscape:export-filename="C:\Users\Daniel\git\trntxt\resources\iconGenerator\Z.png"
     inkscape:export-xdpi="3218.6855"
     inkscape:export-ydpi="3218.6855" />
</svg>
