<svg xmlns="http://www.w3.org/2000/svg" xmlns:xlink="http://www.w3.org/1999/xlink" width="16" height="16"><defs><linearGradient id="a"><stop offset="0" stop-color="#3fa6da"/><stop offset="1" stop-color="#72d1d7"/></linearGradient><linearGradient id="b" x2="32" y1="16" y2="16" gradientTransform="scale(.5)" gradientUnits="userSpaceOnUse" xlink:href="#a"/></defs><path fill="url(#b)" d="M0 0h16v16H0z"/><path fill="#fff" d="M0 11h16v1H0zM0 2v1h3v4H0v1h3l3 2h6s2 0 3-2l-1-1H6V3h4C9 2 8 2 8 2H0z"/><path fill="#fff" fill-opacity=".5" d="M0 8h3l3 2H0zM14 7H6V3h4zM0 3h3v4H0z"/><path fill="#fff" d="M2 13h4v1H2zM10 13h4v1h-4z"/></svg>