<?xml version="1.0" encoding="UTF-8" standalone="no"?>
<svg
   xmlns:dc="http://purl.org/dc/elements/1.1/"
   xmlns:cc="http://creativecommons.org/ns#"
   xmlns:rdf="http://www.w3.org/1999/02/22-rdf-syntax-ns#"
   xmlns:svg="http://www.w3.org/2000/svg"
   xmlns="http://www.w3.org/2000/svg"
   xmlns:xlink="http://www.w3.org/1999/xlink"
   xmlns:sodipodi="http://sodipodi.sourceforge.net/DTD/sodipodi-0.dtd"
   xmlns:inkscape="http://www.inkscape.org/namespaces/inkscape"
   id="svg8"
   version="1.1"
   viewBox="0 0 28 14"
   height="14"
   width="28"
   sodipodi:docname="trntxt_banner.svg"
   inkscape:version="0.92.1 r15371"
   inkscape:export-filename="C:\Users\Daniel\git\trntxt\trntxtheader.png"
   inkscape:export-xdpi="1755.4301"
   inkscape:export-ydpi="1755.4301">
  <metadata
     id="metadata7">
    <rdf:RDF>
      <cc:Work
         rdf:about="">
        <dc:format>image/svg+xml</dc:format>
        <dc:type
           rdf:resource="http://purl.org/dc/dcmitype/StillImage" />
        <dc:title />
      </cc:Work>
    </rdf:RDF>
  </metadata>
  <defs
     id="defs5">
    <linearGradient
       inkscape:collect="always"
       id="linearGradient4501">
      <stop
         style="stop-color:#3fa6da;stop-opacity:1;"
         offset="0"
         id="stop4497" />
      <stop
         style="stop-color:#72d1d7;stop-opacity:1"
         offset="1"
         id="stop4499" />
    </linearGradient>
    <linearGradient
       inkscape:collect="always"
       xlink:href="#linearGradient4501"
       id="linearGradient4503"
       x1="0"
       y1="16"
       x2="32"
       y2="16"
       gradientUnits="userSpaceOnUse"
       gradientTransform="scale(0.875,0.43750001)" />
  </defs>
  <sodipodi:namedview
     pagecolor="#b1b1b1"
     bordercolor="#666666"
     borderopacity="1"
     objecttolerance="10"
     gridtolerance="10"
     guidetolerance="10"
     inkscape:pageopacity="0"
     inkscape:pageshadow="2"
     inkscape:window-width="3840"
     inkscape:window-height="2004"
     id="namedview3"
     showgrid="true"
     inkscape:zoom="16.390884"
     inkscape:cx="-11.819845"
     inkscape:cy="16.610964"
     inkscape:window-x="-16"
     inkscape:window-y="-16"
     inkscape:window-maximized="1"
     inkscape:current-layer="svg8"
     inkscape:object-paths="false"
     inkscape:snap-grids="true"
     inkscape:snap-to-guides="false"
     inkscape:object-nodes="true"
     inkscape:snap-smooth-nodes="true"
     fit-margin-top="0"
     fit-margin-left="0"
     fit-margin-right="0"
     fit-margin-bottom="0">
    <inkscape:grid
       type="xygrid"
       id="grid3679"
       originx="0"
       originy="-9" />
  </sodipodi:namedview>
  <rect
     id="background"
     width="28"
     height="14"
     x="0"
     y="0"
     style="fill:url(#linearGradient4503);fill-opacity:1;stroke:none;stroke-width:0.61871845"
     inkscape:export-filename="C:\Users\Daniel\git\trntxt\resources\iconGenerator\trntxt_logo.png"
     inkscape:export-xdpi="3072"
     inkscape:export-ydpi="3072" />
  <rect
     style="fill:#ffffff;fill-opacity:1;stroke:none;stroke-width:0.93541437"
     id="rail"
     width="28"
     height="1"
     x="0"
     y="11"
     inkscape:export-filename="C:\Users\Daniel\git\trntxt\resources\iconGenerator\trntxt_logo.png"
     inkscape:export-xdpi="3072"
     inkscape:export-ydpi="3072" />
  <path
     style="fill:#ffffff;fill-opacity:1;stroke:none"
     d="M 0,2 V 3 H 3 V 7 H 0 v 1 h 3 l 3,2 h 6 c 0,0 2,0 3,-2 L 14,7 H 6 V 3 h 4 C 9,2 8,2 8,2 Z"
     id="trainframe"
     inkscape:connector-curvature="0" />
  <path
     style="fill:#ffffff;fill-opacity:0.50196078;stroke:none"
     d="m 0,8 h 3 l 3,2 H 0 Z"
     id="trainbase"
     inkscape:connector-curvature="0"
     sodipodi:nodetypes="ccccc" />
  <path
     style="fill:#ffffff;fill-opacity:0.50196078;stroke:none"
     d="M 14,7 H 6 V 3 h 4 z"
     id="frontwindow"
     inkscape:connector-curvature="0" />
  <rect
     style="fill:#ffffff;fill-opacity:0.50196078;stroke:none;stroke-width:0.61237246"
     id="window1"
     width="3"
     height="4"
     x="0"
     y="3" />
  <g
     id="g4713"
     transform="matrix(0.98564201,0,0,0.98564201,0.59703649,-8.7271994)">
    <path
       inkscape:export-ydpi="3164.7163"
       inkscape:export-xdpi="3164.7163"
       inkscape:export-filename="C:\Users\Daniel\git\trntxt\resources\iconGenerator\T.png"
       d="m 18.420876,11.461483 h -0.764401 v 2.512614 q 0,0.217053 -0.09673,0.323219 -0.09673,0.103808 -0.250082,0.103808 -0.155711,0 -0.2548,-0.106167 -0.09673,-0.106167 -0.09673,-0.32086 v -2.512614 h -0.764402 q -0.179303,0 -0.266596,-0.07786 -0.08729,-0.08022 -0.08729,-0.209974 0,-0.134478 0.08965,-0.212334 0.09201,-0.07785 0.264237,-0.07785 h 2.227144 q 0.181663,0 0.268956,0.08021 0.08965,0.08022 0.08965,0.209975 0,0.129759 -0.08965,0.209974 -0.08965,0.07786 -0.268956,0.07786 z"
       style="font-style:normal;font-variant:normal;font-weight:normal;font-stretch:normal;font-size:9.33333302px;line-height:1.25;font-family:'Arial Rounded MT Bold';-inkscape-font-specification:'Arial Rounded MT Bold, ';letter-spacing:0px;word-spacing:0px;fill:#ffffff;fill-opacity:1;stroke:none;stroke-width:0.51768953"
       id="T-2"
       inkscape:connector-curvature="0" />
    <path
       inkscape:export-ydpi="3164.7163"
       inkscape:export-xdpi="3164.7163"
       inkscape:export-filename="C:\Users\Daniel\git\trntxt\resources\iconGenerator\T.png"
       d="m 18.420876,16.060359 h -0.764401 v 2.512614 q 0,0.217053 -0.09673,0.323219 Q 17.463015,19 17.309663,19 q -0.155711,0 -0.2548,-0.106167 -0.09673,-0.106167 -0.09673,-0.32086 v -2.512614 h -0.764402 q -0.179303,0 -0.266596,-0.07785 -0.08729,-0.08022 -0.08729,-0.209975 0,-0.134478 0.08965,-0.212333 0.09201,-0.07786 0.264237,-0.07786 h 2.227144 q 0.181663,0 0.268956,0.08021 0.08965,0.08022 0.08965,0.209974 0,0.12976 -0.08965,0.209975 -0.08965,0.07785 -0.268956,0.07785 z"
       style="font-style:normal;font-variant:normal;font-weight:normal;font-stretch:normal;font-size:9.33333302px;line-height:1.25;font-family:'Arial Rounded MT Bold';-inkscape-font-specification:'Arial Rounded MT Bold, ';letter-spacing:0px;word-spacing:0px;fill:#ffffff;fill-opacity:1;stroke:none;stroke-width:0.51768953"
       id="T-22"
       inkscape:connector-curvature="0" />
    <path
       inkscape:export-ydpi="3164.7163"
       inkscape:export-xdpi="3164.7163"
       inkscape:export-filename="C:\Users\Daniel\git\trntxt\resources\iconGenerator\T.png"
       d="m 25.317336,16.060359 h -0.764401 v 2.512614 q 0,0.217053 -0.09673,0.323219 Q 24.359475,19 24.206123,19 q -0.155711,0 -0.2548,-0.106167 -0.09673,-0.106167 -0.09673,-0.32086 v -2.512614 h -0.764401 q -0.179304,0 -0.266596,-0.07785 -0.08729,-0.08022 -0.08729,-0.209975 0,-0.134478 0.08965,-0.212333 0.09201,-0.07786 0.264237,-0.07786 h 2.227144 q 0.181663,0 0.268956,0.08021 0.08965,0.08022 0.08965,0.209974 0,0.12976 -0.08965,0.209975 -0.08965,0.07785 -0.268956,0.07785 z"
       style="font-style:normal;font-variant:normal;font-weight:normal;font-stretch:normal;font-size:9.33333302px;line-height:1.25;font-family:'Arial Rounded MT Bold';-inkscape-font-specification:'Arial Rounded MT Bold, ';letter-spacing:0px;word-spacing:0px;fill:#ffffff;fill-opacity:1;stroke:none;stroke-width:0.51768953"
       id="T-5"
       inkscape:connector-curvature="0" />
    <path
       inkscape:export-ydpi="3112.5271"
       inkscape:export-xdpi="3112.5271"
       inkscape:export-filename="C:\Users\Daniel\git\trntxt\resources\iconGenerator\X.png"
       d="m 19.58031,18.280692 0.761077,-1.111451 -0.640418,-0.988473 q -0.09049,-0.143862 -0.136902,-0.245958 -0.04409,-0.104416 -0.04409,-0.199551 0,-0.09746 0.08585,-0.174027 0.08817,-0.07889 0.213474,-0.07889 0.143862,0 0.222754,0.08585 0.08121,0.08353 0.222754,0.313247 l 0.510478,0.826049 0.545285,-0.826049 q 0.06729,-0.104416 0.113697,-0.178667 0.04872,-0.07426 0.09281,-0.122979 0.04409,-0.04872 0.09746,-0.07193 0.05569,-0.02552 0.127621,-0.02552 0.129939,0 0.211151,0.07889 0.08353,0.07658 0.08353,0.183309 0,0.155464 -0.178668,0.422304 l -0.670583,1.002396 0.721631,1.111451 q 0.09746,0.146183 0.141542,0.243638 0.04409,0.09514 0.04409,0.180987 0,0.08121 -0.03945,0.148503 -0.03945,0.06729 -0.111376,0.106737 -0.07193,0.03945 -0.162426,0.03945 -0.09746,0 -0.164745,-0.04177 -0.06729,-0.03945 -0.109057,-0.09978 -0.04177,-0.06033 -0.155464,-0.234355 l -0.598652,-0.942066 -0.635777,0.96991 q -0.07426,0.116018 -0.106738,0.162425 -0.03016,0.04641 -0.07426,0.09049 -0.04409,0.04409 -0.104416,0.06961 -0.06033,0.02552 -0.141542,0.02552 -0.125299,0 -0.208832,-0.07657 -0.08121,-0.07658 -0.08121,-0.222755 0,-0.171706 0.169386,-0.419984 z"
       style="font-style:normal;font-variant:normal;font-weight:normal;font-stretch:normal;font-size:9.33333302px;line-height:1.25;font-family:'Arial Rounded MT Bold';-inkscape-font-specification:'Arial Rounded MT Bold, ';letter-spacing:0px;word-spacing:0px;fill:#ffffff;fill-opacity:1;stroke:none;stroke-width:0.50915283"
       id="X-6"
       inkscape:connector-curvature="0" />
    <path
       inkscape:export-ydpi="3164.7163"
       inkscape:export-xdpi="3164.7163"
       inkscape:export-filename="C:\Users\Daniel\git\trntxt\resources\iconGenerator\R.png"
       d="m 20.195715,12.862885 h -0.245363 v 1.111212 q 0,0.219412 -0.09673,0.323219 -0.09673,0.103808 -0.252441,0.103808 -0.167508,0 -0.259519,-0.108527 -0.09201,-0.108525 -0.09201,-0.3185 V 11.31285 q 0,-0.22649 0.101448,-0.327937 0.101448,-0.101449 0.327937,-0.101449 h 1.139524 q 0.235926,0 0.403434,0.02124 0.167507,0.01887 0.301985,0.08022 0.16279,0.06842 0.28783,0.195818 0.125041,0.127401 0.188741,0.297267 0.06606,0.167508 0.06606,0.356249 0,0.386919 -0.219411,0.618126 -0.217052,0.231208 -0.660593,0.327938 0.186382,0.09909 0.356249,0.292548 0.169866,0.19346 0.301985,0.412871 0.134478,0.217053 0.207615,0.393997 0.0755,0.174583 0.0755,0.240643 0,0.06842 -0.04483,0.136837 -0.04247,0.06606 -0.117964,0.103807 -0.0755,0.04011 -0.174585,0.04011 -0.117963,0 -0.198178,-0.05662 -0.08021,-0.05426 -0.139196,-0.139196 -0.05662,-0.08493 -0.155712,-0.250082 L 21.01674,13.488103 q -0.150993,-0.257159 -0.271315,-0.391637 -0.117963,-0.134478 -0.240645,-0.184023 -0.122682,-0.04954 -0.309063,-0.04954 z m 0.401074,-1.453306 h -0.646437 v 0.950783 h 0.627564 q 0.25244,0 0.424666,-0.04247 0.172226,-0.04483 0.261878,-0.148634 0.09201,-0.106166 0.09201,-0.290189 0,-0.143915 -0.07314,-0.252441 -0.07314,-0.110885 -0.202897,-0.165148 -0.122682,-0.0519 -0.483649,-0.0519 z"
       style="font-style:normal;font-variant:normal;font-weight:normal;font-stretch:normal;font-size:9.33333302px;line-height:1.25;font-family:'Arial Rounded MT Bold';-inkscape-font-specification:'Arial Rounded MT Bold, ';letter-spacing:0px;word-spacing:0px;fill:#ffffff;fill-opacity:1;stroke:none;stroke-width:0.51768953"
       id="R-1"
       inkscape:connector-curvature="0" />
    <path
       inkscape:export-ydpi="3112.5271"
       inkscape:export-xdpi="3112.5271"
       inkscape:export-filename="C:\Users\Daniel\git\trntxt\resources\iconGenerator\N.png"
       d="m 23.663156,11.303413 1.347139,2.038402 v -2.057276 q 0,-0.200538 0.08493,-0.299626 0.08729,-0.101449 0.233567,-0.101449 0.150993,0 0.238285,0.101449 0.08729,0.09909 0.08729,0.299626 v 2.720229 q 0,0.455337 -0.377481,0.455337 -0.09437,0 -0.169867,-0.02831 -0.0755,-0.02595 -0.141556,-0.08493 -0.06606,-0.05898 -0.122682,-0.136837 -0.05662,-0.08022 -0.113244,-0.162789 l -1.314109,-2.014808 v 2.026605 q 0,0.198179 -0.09201,0.299627 -0.09201,0.101448 -0.235926,0.101448 -0.148633,0 -0.238285,-0.101448 -0.08965,-0.103807 -0.08965,-0.299627 v -2.668324 q 0,-0.169867 0.03775,-0.266597 0.04483,-0.106167 0.148634,-0.172227 0.103807,-0.06842 0.224129,-0.06842 0.09437,0 0.16043,0.03067 0.06842,0.03067 0.117964,0.08257 0.0519,0.0519 0.103807,0.134478 0.05426,0.08257 0.110885,0.172227 z"
       style="font-style:normal;font-variant:normal;font-weight:normal;font-stretch:normal;font-size:9.33333302px;line-height:1.25;font-family:'Arial Rounded MT Bold';-inkscape-font-specification:'Arial Rounded MT Bold, ';letter-spacing:0px;word-spacing:0px;fill:#ffffff;fill-opacity:1;stroke:none;stroke-width:0.51768953"
       id="N-7"
       inkscape:connector-curvature="0" />
  </g>
</svg>
